{
  "asset": {
    "version": "2.0",
    "generator": "THREE.GLTFExporter"
  },
  "scenes": [
    {
      "nodes": [
        0
      ]
    }
  ],
  "scene": 0,
  "nodes": [
    {
      "children": [
        11
      ],
      "matrix": [
        0.01,
        0,
        0,
        0,
        0,
        0.01,
        0,
        0,
        0,
        0,
        0.01,
        0,
        0,
        0,
        0,
        1
      ]
    },
    {
      "matrix": [
        2.220446049250313e-16,
        -2.220446049250313e-16,
        1,
        0,
        1,
        0,
        -2.220446049250313e-16,
        0,
        0,
        1,
        2.220446049250313e-16,
        0,
        0,
        -115,
        0,
        1
      ],
      "name": "Plane",
      "mesh": 0
    },
    {
      "matrix": [
        1,
        0,
        0,
        0,
        0,
        1,
        0,
        0,
        0,
        0,
        1,
        0,
        0,
        12.86664494356188,
        0,
        1
      ],
      "name": "Point Light",
      "extensions": {
        "KHR_lights_punctual": {
          "light": 0
        }
      }
    },
    {
      "matrix": [
        1,
        0,
        0,
        0,
        0,
        1,
        0,
        0,
        0,
        0,
        1,
        0,
        0,
        92,
        0,
        1
      ],
      "name": "GEM",
      "mesh": 1,
      "children": [
        2
      ]
    },
    {
      "matrix": [
        0.9233281077378935,
        -1.402882870982225e-8,
        -0.38401198609048737,
        0,
        -0.12946124627602676,
        0.9414587597933466,
        -0.31127992116587216,
        0,
        0.3615314525374228,
        0.3371281708910922,
        0.8692753333770652,
        0,
        339.95785279881346,
        249.8610018048065,
        798.904994731305,
        1
      ],
      "name": "Personal Camera",
      "camera": 0
    },
    {
      "matrix": [
        1,
        0,
        0,
        0,
        0,
        1,
        0,
        0,
        0,
        0,
        1,
        0,
        0,
        1,
        0,
        1
      ],
      "name": "Default Ambient Light"
    },
    {
      "matrix": [
        0.00031789118151337453,
        -0.43175740298405385,
        -1.132441448644496,
        0,
        0.02069088043880642,
        1.132278376360984,
        -0.43168942144368444,
        0,
        1.2117796734993727,
        -0.019220147975011558,
        0.007668083199530487,
        0,
        0,
        70,
        0,
        1
      ],
      "mesh": 2
    },
    {
      "matrix": [
        -0.6947322690754876,
        0.747281890288775,
        0.8163955448535145,
        0,
        0.43447532865432664,
        -0.7023879593906482,
        1.0126535331488076,
        0,
        1.0179209684454618,
        0.8098183536167128,
        0.12496387897939508,
        0,
        70,
        1.554312234475219e-14,
        0,
        1
      ],
      "mesh": 2
    },
    {
      "matrix": [
        -0.23086071853657344,
        0.7381506460861463,
        -0.9803319481678511,
        0,
        -0.20919080443612187,
        0.9592561756618416,
        0.7715442781028051,
        0,
        1.2091965565016045,
        0.3068794379172629,
        -0.053688682303066275,
        0,
        8.572527594031473e-15,
        -70,
        0,
        1
      ],
      "mesh": 2
    },
    {
      "matrix": [
        -0.0008252940191744883,
        -0.3247448078917781,
        -1.1711222467974065,
        0,
        -0.009119941439111798,
        1.1710911966153852,
        -0.32472977101704664,
        0,
        1.2152791176781654,
        0.008567803917484964,
        -0.003232209476881696,
        0,
        -70,
        -1.554312234475219e-14,
        0,
        1
      ],
      "mesh": 2
    },
    {
      "matrix": [
        1,
        0,
        0,
        0,
        0,
        2.220446049250313e-16,
        -1,
        0,
        0,
        1,
        2.220446049250313e-16,
        0,
        -1,
        -145,
        0,
        1
      ],
      "children": [
        6,
        7,
        8,
        9
      ]
    },
    {
      "name": "Scene 1",
      "children": [
        1,
        3,
        4,
        5,
        10
      ]
    }
  ],
  "bufferViews": [
    {
      "buffer": 0,
      "byteOffset": 0,
      "byteLength": 48,
      "target": 34962,
      "byteStride": 12
    },
    {
      "buffer": 0,
      "byteOffset": 48,
      "byteLength": 48,
      "target": 34962,
      "byteStride": 12
    },
    {
      "buffer": 0,
      "byteOffset": 96,
      "byteLength": 32,
      "target": 34962,
      "byteStride": 8
    },
    {
      "buffer": 0,
      "byteOffset": 128,
      "byteLength": 24,
      "target": 34963
    },
    {
      "buffer": 0,
      "byteOffset": 152,
      "byteLength": 1536,
      "target": 34962,
      "byteStride": 12
    },
    {
      "buffer": 0,
      "byteOffset": 1688,
      "byteLength": 1536,
      "target": 34962,
      "byteStride": 12
    },
    {
      "buffer": 0,
      "byteOffset": 3224,
      "byteLength": 768,
      "target": 34963
    },
    {
      "buffer": 0,
      "byteOffset": 3992,
      "byteLength": 1152,
      "target": 34962,
      "byteStride": 12
    },
    {
      "buffer": 0,
      "byteOffset": 5144,
      "byteLength": 1152,
      "target": 34962,
      "byteStride": 12
    },
    {
      "buffer": 0,
      "byteOffset": 6296,
      "byteLength": 576,
      "target": 34963
    }
  ],
  "buffers": [
    {
      "byteLength": 6872,
      "uri": "data:application/octet-stream;base64,"
    }
  ],
  "accessors": [
    {
      "bufferView": 0,
      "componentType": 5126,
      "count": 4,
      "max": [
        1000,
        1000,
        0
      ],
      "min": [
        -1000,
        -1000,
        0
      ],
      "type": "VEC3"
    },
    {
      "bufferView": 1,
      "componentType": 5126,
      "count": 4,
      "max": [
        0,
        0,
        1
      ],
      "min": [
        0,
        0,
        1
      ],
      "type": "VEC3"
    },
    {
      "bufferView": 2,
      "componentType": 5126,
      "count": 4,
      "max": [
        1,
        1
      ],
      "min": [
        0,
        0
      ],
      "type": "VEC2"
    },
    {
      "bufferView": 3,
      "componentType": 5125,
      "count": 6,
      "max": [
        3
      ],
      "min": [
        0
      ],
      "type": "SCALAR"
    },
    {
      "bufferView": 4,
      "componentType": 5126,
      "count": 128,
      "max": [
        50,
        100,
        22.012388229370117
      ],
      "min": [
        -50,
        -100,
        -22.012388229370117
      ],
      "type": "VEC3"
    },
    {
      "bufferView": 5,
      "componentType": 5126,
      "count": 128,
      "max": [
        1,
        0.6693281531333923,
        1
      ],
      "min": [
        -1,
        -0.6590993404388428,
        -1
      ],
      "type": "VEC3"
    },
    {
      "bufferView": 6,
      "componentType": 5125,
      "count": 192,
      "max": [
        127
      ],
      "min": [
        0
      ],
      "type": "SCALAR"
    },
    {
      "bufferView": 7,
      "componentType": 5126,
      "count": 96,
      "max": [
        55.0843505859375,
        81.71148681640625,
        68.37407684326172
      ],
      "min": [
        -51.09383010864258,
        -46.14845275878906,
        -56.26228332519531
      ],
      "type": "VEC3"
    },
    {
      "bufferView": 8,
      "componentType": 5126,
      "count": 96,
      "max": [
        0.9971603155136108,
        0.8875845074653625,
        0.9193456172943115
      ],
      "min": [
        -0.9995592832565308,
        -0.9981810450553894,
        -0.9989812970161438
      ],
      "type": "VEC3"
    },
    {
      "bufferView": 9,
      "componentType": 5125,
      "count": 144,
      "max": [
        95
      ],
      "min": [
        0
      ],
      "type": "SCALAR"
    }
  ],
  "meshes": [
    {
      "primitives": [
        {
          "mode": 4,
          "attributes": {
            "POSITION": 0,
            "NORMAL": 1,
            "TEXCOORD_0": 2
          },
          "extras": {
            "shape": {
              "points": [
                -1000,
                1000,
                -1000,
                1000,
                -1000,
                1000,
                0,
                1000,
                1000,
                1000,
                1000,
                1000,
                1000,
                0,
                1000,
                -1000,
                1000,
                -1000,
                1000,
                -1000,
                0,
                -1000,
                -1000,
                -1000,
                -1000,
                -1000,
                -1000,
                0
              ],
              "shapeHoles": [],
              "isClosed": true,
              "roundness": 0
            },
            "parameters": {
              "width": 2000,
              "depth": 0,
              "cornerRadius": [
                0,
                0,
                0,
                0
              ],
              "cornerType": 1,
              "extrudeBevelSize": 0,
              "extrudeBevelSegments": 1,
              "height": 2000,
              "type": "RectangleGeometry"
            },
            "ui": {
              "enabledIndieCorners": false
            },
            "type": "RectangleGeometry"
          },
          "indices": 3
        }
      ]
    },
    {
      "primitives": [
        {
          "mode": 4,
          "attributes": {
            "POSITION": 4,
            "NORMAL": 5
          },
          "extras": {
            "type": "SubdivGeometry",
            "parameters": {
              "width": 100,
              "height": 200,
              "depth": 44.024776458740234
            }
          },
          "indices": 6
        }
      ]
    },
    {
      "primitives": [
        {
          "mode": 4,
          "attributes": {
            "POSITION": 7,
            "NORMAL": 8
          },
          "extras": {
            "type": "SubdivGeometry",
            "parameters": {
              "width": 106.17818069458008,
              "height": 127.85993957519531,
              "depth": 124.63636016845703
            }
          },
          "indices": 9
        }
      ]
    }
  ],
  "extensions": {
    "KHR_lights_punctual": {
      "lights": [
        {
          "name": "Point Light",
          "color": [
            0.4823529411764706,
            0.7372549019607844,
            1
          ],
          "intensity": 1,
          "type": "point",
          "range": 500
        }
      ]
    }
  },
  "cameras": [
    {
      "type": "orthographic",
      "orthographic": {
        "xmag": 7.05688215,
        "ymag": 3.642380318046875,
        "zfar": 100000,
        "znear": 0
      },
      "name": "Camera"
    }
  ],
  "extensionsUsed": [
    "KHR_lights_punctual"
  ]
}